HIERARCHY
ROOT SpineBase
{
  OFFSET 0.000000 0.000000 0.000000
  CHANNELS 6 Xposition Yposition Zposition Zrotation Xrotation Yrotation
  JOINT SpineMid
  {
    OFFSET 0.000000 30.106810 0.000000
    CHANNELS 3 Zrotation Xrotation Yrotation
    JOINT SpineShoulder
    {
      OFFSET -0.038501 22.361283 -0.693175
      CHANNELS 3 Zrotation Xrotation Yrotation
      JOINT Neck
      {
        OFFSET -0.025765 7.397427 -0.542254
        CHANNELS 3 Zrotation Xrotation Yrotation
        JOINT Head
        {
          OFFSET -3.516007 13.697605 0.100776
          CHANNELS 3 Zrotation Xrotation Yrotation
          End Site
          {
            OFFSET 0 0 0
          }
        }
      }
      JOINT ShoulderLeft
      {
        OFFSET -17.134149 -4.256927 6.332103
        CHANNELS 3 Zrotation Xrotation Yrotation
        JOINT ElbowLeft
        {
          OFFSET -2.019981 -25.250807 -0.887402
          CHANNELS 3 Zrotation Xrotation Yrotation
          JOINT WristLeft
          {
            OFFSET 0.048602 -19.175264 -6.174105
            CHANNELS 3 Zrotation Xrotation Yrotation
            JOINT HandLeft
            {
              OFFSET 1.200849 -4.872417 -2.047794
              CHANNELS 3 Zrotation Xrotation Yrotation
              JOINT HandTipLeft
              {
                OFFSET 0.147044 -6.961992 -0.901374
                CHANNELS 3 Zrotation Xrotation Yrotation
                End Site
                {
                  OFFSET 0 0 0
                }
              }
              JOINT ThumbLeft
              {
                OFFSET -3.336975 -2.092426 -2.462221
                CHANNELS 3 Zrotation Xrotation Yrotation
                End Site
                {
                  OFFSET 0 0 0
                }
              }
            }
          }
        }
      }
      JOINT ShoulderRight
      {
        OFFSET 15.095847 -2.975128 -6.200688
        CHANNELS 3 Zrotation Xrotation Yrotation
        JOINT ElbowRight
        {
          OFFSET 4.689925 -23.371708 -2.243027
          CHANNELS 3 Zrotation Xrotation Yrotation
          JOINT WristRight
          {
            OFFSET -2.287257 -19.482789 -5.930419
            CHANNELS 3 Zrotation Xrotation Yrotation
            JOINT HandRight
            {
              OFFSET -1.981217 -6.589157 -0.254206
              CHANNELS 3 Zrotation Xrotation Yrotation
              JOINT HandTipRight
              {
                OFFSET -1.115309 -6.045380 -1.882361
                CHANNELS 3 Zrotation Xrotation Yrotation
                End Site
                {
                  OFFSET 0 0 0
                }
              }
              JOINT ThumbRight
              {
                OFFSET -2.319301 0.935331 -0.402248
                CHANNELS 3 Zrotation Xrotation Yrotation
                End Site
                {
                  OFFSET 0 0 0
                }
              }
            }
          }
        }
      }
    }
  }
  JOINT HipLeft
  {
    OFFSET -6.598120 0.351947 -1.072738
    CHANNELS 3 Zrotation Xrotation Yrotation
    JOINT KneeLeft
    {
      OFFSET -0.414076 -26.579315 2.103550
      CHANNELS 3 Zrotation Xrotation Yrotation
      JOINT AnkleLeft
      {
        OFFSET 2.221906 -29.367550 4.239249
        CHANNELS 3 Zrotation Xrotation Yrotation
        JOINT FootLeft
        {
          OFFSET -1.255922 -8.633174 -3.892078
          CHANNELS 3 Zrotation Xrotation Yrotation
          End Site
          {
            OFFSET 0 0 0
          }
        }
      }
    }
  }
  JOINT HipRight
  {
    OFFSET 6.305248 1.069760 -5.865194
    CHANNELS 3 Zrotation Xrotation Yrotation
    JOINT KneeRight
    {
      OFFSET 10.425011 -29.955463 1.844515
      CHANNELS 3 Zrotation Xrotation Yrotation
      JOINT AnkleRight
      {
        OFFSET 8.846984 -28.952967 5.926045
        CHANNELS 3 Zrotation Xrotation Yrotation
        JOINT FootRight
        {
          OFFSET 1.944915 -5.982296 -6.259916
          CHANNELS 3 Zrotation Xrotation Yrotation
          End Site
          {
            OFFSET 0 0 0
          }
        }
      }
    }
  }
}
MOTION
Frames: 14
Frame Time: 0.033333
15.720972 64.981532 369.035508 -0.734453 4.117252 27.504881 -0.631869 0.778859 -27.548279 -0.267897 0.240139 -0.087735 -6.812119 -1.797015 0.541763 0.000000 0.000000 0.000000 -22.821791 4.030997 0.220420 46.572958 -14.234897 -0.895113 -15.452649 18.450873 6.563176 3.884898 4.369388 -1.125495 0.000000 0.000000 0.000000 0.000000 0.000000 0.000000 0.802321 0.414497 1.304817 -5.144033 -4.111204 0.156353 -0.984047 8.664449 -3.772787 4.967953 -20.063063 5.540543 0.000000 0.000000 0.000000 0.000000 0.000000 0.000000 -2.262128 2.139113 -27.912492 5.126372 -8.313354 0.626334 -7.061059 28.706751 0.480276 0.000000 0.000000 0.000000 -1.251367 -3.990849 -27.522081 -0.334031 -2.236762 -0.756092 2.324802 -0.511378 -2.327077 0.000000 0.000000 0.000000
16.470145 64.992619 368.233733 -2.432957 5.300562 28.691409 -0.576492 0.889458 -28.701136 -0.243399 0.249458 -0.154309 -7.243607 -1.804576 0.888268 0.000000 0.000000 0.000000 -35.127129 8.694634 1.556756 66.205820 -10.754270 1.938786 -19.430333 31.398542 9.497815 3.984160 -4.347667 -2.875696 0.000000 0.000000 0.000000 0.000000 0.000000 0.000000 0.263782 0.808004 1.981721 -5.331474 -5.351584 -0.017968 -0.167316 8.289583 -4.272221 2.985061 -19.237128 5.616949 0.000000 0.000000 0.000000 0.000000 0.000000 0.000000 -2.157407 0.967706 -29.134054 5.859442 -9.292923 0.621123 -5.521352 23.939913 0.412991 0.000000 0.000000 0.000000 -1.242257 -6.348659 -29.018427 -0.099935 -1.802833 -0.609324 2.000536 -0.176876 -1.583169 0.000000 0.000000 0.000000
17.466372 64.941229 367.362861 -4.705346 6.445222 28.959868 -0.561975 0.972230 -28.883877 -0.170934 0.236647 -0.238718 -8.158633 -1.682888 1.267869 0.000000 0.000000 0.000000 -53.710810 13.047096 4.584379 94.275214 16.646250 -1.855285 -21.234384 38.692885 8.863579 -0.598083 -12.248143 -7.232504 0.000000 0.000000 0.000000 0.000000 0.000000 0.000000 -0.383936 1.139820 2.739547 -4.699677 -5.505209 -0.278225 0.845097 7.438067 -4.833743 1.607297 -17.797184 5.665448 0.000000 0.000000 0.000000 0.000000 0.000000 0.000000 -1.473899 -1.272728 -29.323044 5.367941 -9.578572 0.315700 -4.692970 17.042375 1.570852 0.000000 0.000000 0.000000 -1.220324 -8.797335 -29.687666 0.458885 -1.243267 -0.442322 1.963671 0.204378 -0.832315 0.000000 0.000000 0.000000
18.630272 64.844578 366.491471 -7.220942 7.503951 28.379717 -0.433262 0.857807 -28.153370 -0.027420 0.165676 -0.318020 -9.617014 -1.328009 1.654196 0.000000 0.000000 0.000000 -61.691936 16.972889 7.698117 32.543999 87.397387 44.417896 -2.285234 2.710447 20.831225 -5.546081 9.020900 -27.130122 0.000000 0.000000 0.000000 0.000000 0.000000 0.000000 -1.718059 1.943932 3.623600 -3.323777 -5.232198 -0.652809 2.731341 6.022368 -5.426309 -0.932823 -15.773558 5.680894 0.000000 0.000000 0.000000 0.000000 0.000000 0.000000 -0.209611 -4.196144 -28.521610 3.684522 -9.423015 -0.230181 -4.744459 19.607787 2.682213 0.000000 0.000000 0.000000 -0.960250 -11.168429 -29.504887 1.081952 -0.701232 -0.305696 1.870161 0.807396 0.231252 0.000000 0.000000 0.000000
19.825267 64.757315 365.670231 -9.652581 8.418264 26.634960 -0.312692 0.643480 -26.227058 0.006340 0.147881 -0.404317 -11.353753 -1.147630 1.915182 0.000000 0.000000 0.000000 -63.727850 16.546838 7.833388 -59.671141 59.107113 120.004995 18.800103 -0.228301 47.095046 3.337556 27.546169 -46.103724 0.000000 0.000000 0.000000 0.000000 0.000000 0.000000 -3.210590 3.026018 4.613797 -1.680112 -4.918416 -1.049132 5.010341 5.516466 -6.156588 -2.078108 -15.141288 5.824796 0.000000 0.000000 0.000000 0.000000 0.000000 0.000000 1.313954 -6.818333 -26.478004 1.942266 -9.438251 -0.768310 -2.701057 26.125471 2.143616 0.000000 0.000000 0.000000 -0.163554 -13.005243 -27.925793 1.630543 -0.564771 -0.328567 1.821240 0.961423 1.181203 0.000000 0.000000 0.000000
20.971755 64.609986 364.999212 -12.085270 9.069658 24.143722 -0.380433 0.653806 -23.557941 -0.019612 0.172235 -0.507231 -13.886323 -0.473341 2.380826 0.000000 0.000000 0.000000 -59.232573 12.669945 5.062683 -66.599118 48.250052 117.379713 24.320185 8.883014 61.347548 2.725773 27.732473 -62.015987 0.000000 0.000000 0.000000 0.000000 0.000000 0.000000 -3.991162 3.680702 5.534760 0.399151 -4.104551 -1.321422 7.153502 4.822091 -6.594161 -3.420524 -13.559970 5.763006 0.000000 0.000000 0.000000 0.000000 0.000000 0.000000 3.349395 -9.097237 -23.579520 0.162271 -9.321749 -1.261355 -0.565344 24.191789 2.291319 0.000000 0.000000 0.000000 1.344006 -14.329200 -25.342416 1.967700 -0.740329 -0.480771 1.988732 1.104577 1.962416 0.000000 0.000000 0.000000
21.976136 64.407917 364.548795 -14.331090 9.414005 21.517878 -0.377749 0.686307 -20.761282 0.022958 0.177226 -0.591619 -16.220917 0.360764 2.940093 0.000000 0.000000 0.000000 -49.613821 6.322364 1.207372 -79.163766 44.076947 121.985667 26.023184 16.339747 69.618308 -1.060200 29.598861 -82.732635 0.000000 0.000000 0.000000 0.000000 0.000000 0.000000 -4.050605 4.138511 6.264402 2.143585 -2.919718 -1.485979 9.531145 3.817561 -6.702080 -4.013113 -10.532005 5.326137 0.000000 0.000000 0.000000 0.000000 0.000000 0.000000 5.831319 -10.890203 -20.446836 -1.758987 -9.041420 -1.698227 -0.311052 34.569379 2.322285 0.000000 0.000000 0.000000 3.403688 -14.948128 -22.332080 1.888820 -1.329472 -0.812867 2.386161 1.417598 2.657801 0.000000 0.000000 0.000000
22.794555 64.205220 364.138755 -16.192929 9.704678 19.352963 -0.447475 0.636812 -18.459558 -0.015181 0.221441 -0.669366 -20.255605 1.002771 3.293123 0.000000 0.000000 0.000000 -35.848570 -0.052752 -1.174322 -95.763302 42.494717 128.788477 30.812185 25.088267 77.831448 -6.103170 33.372162 -98.934192 0.000000 0.000000 0.000000 0.000000 0.000000 0.000000 -3.928989 4.775187 6.998124 3.869911 -2.855351 -1.743792 10.530243 4.148219 -6.872145 -3.895275 -8.534867 5.066385 0.000000 0.000000 0.000000 0.000000 0.000000 0.000000 8.126367 -12.327241 -17.780801 -3.502713 -8.772184 -2.053159 2.222138 45.355442 0.483610 0.000000 0.000000 0.000000 5.344839 -15.371466 -19.750141 1.556043 -1.955648 -1.166258 2.665375 1.587983 3.372922 0.000000 0.000000 0.000000
23.328598 63.985588 363.876378 -17.343320 9.790534 17.688050 -0.439225 0.438115 -16.731051 -0.035361 0.194468 -0.721358 -25.251363 1.903941 3.717228 0.000000 0.000000 0.000000 -22.838049 -5.301674 -1.696026 -112.655639 44.101171 138.157913 43.101744 35.809219 83.694778 -13.954528 42.854330 -106.494257 0.000000 0.000000 0.000000 0.000000 0.000000 0.000000 -3.111274 5.095084 7.305507 4.740238 -2.592979 -1.880229 10.050396 4.325104 -6.846416 -3.261591 -6.550089 4.838636 0.000000 0.000000 0.000000 0.000000 0.000000 0.000000 9.940411 -13.297984 -15.723737 -5.153976 -8.173472 -2.288352 3.887206 51.389344 -0.529294 0.000000 0.000000 0.000000 6.992663 -15.344556 -17.649754 0.940937 -2.668528 -1.549323 2.675839 1.996085 4.286032 0.000000 0.000000 0.000000
23.658553 63.807380 363.595350 -18.542395 9.836438 16.841849 -0.192247 0.245305 -15.791251 0.166095 0.113700 -0.739623 -27.297023 2.699807 4.295638 0.000000 0.000000 0.000000 -13.649046 -8.286044 -1.258548 -125.911070 43.594451 145.831380 42.206625 34.304668 81.423852 -8.600450 43.432898 -112.051866 0.000000 0.000000 0.000000 0.000000 0.000000 0.000000 -2.698392 4.839291 7.314992 6.311132 -1.956782 -1.921667 8.167107 3.670297 -6.512392 -1.514384 -4.974694 4.597284 0.000000 0.000000 0.000000 0.000000 0.000000 0.000000 11.586342 -14.252803 -14.502294 -6.244371 -7.488036 -2.377242 4.208113 52.984856 -0.402016 0.000000 0.000000 0.000000 8.757072 -15.412145 -16.302884 0.087530 -3.363976 -1.937960 2.675304 2.107814 5.067797 0.000000 0.000000 0.000000
24.221082 63.651212 363.470639 -19.145817 9.731710 16.317067 -0.228778 0.313056 -15.245017 -0.014464 0.160055 -0.789152 -28.815930 3.512525 4.999347 0.000000 0.000000 0.000000 -9.846831 -9.389636 -0.932764 -128.960034 43.876163 146.359876 43.066133 35.495397 80.842635 -9.723062 43.746649 -111.095130 0.000000 0.000000 0.000000 0.000000 0.000000 0.000000 -1.982734 4.459931 7.309349 7.592468 -2.615333 -1.984801 4.528785 3.731939 -6.264354 1.199579 -2.599790 4.433175 0.000000 0.000000 0.000000 0.000000 0.000000 0.000000 12.105854 -14.555843 -13.930307 -6.775679 -7.214926 -2.472007 4.907947 51.513318 -0.225943 0.000000 0.000000 0.000000 9.574707 -15.130418 -15.535393 -0.537606 -3.990252 -2.317026 2.412352 2.231131 6.263579 0.000000 0.000000 0.000000
24.735141 63.562837 363.551466 -19.139588 9.409871 16.152649 -0.236075 0.382163 -15.127042 0.077988 0.129182 -0.781054 -29.120166 3.703580 5.131810 0.000000 0.000000 0.000000 -10.208413 -9.074312 -0.877575 -126.502199 44.366565 143.313621 41.278014 34.888676 79.201556 -9.699521 41.610688 -107.010217 0.000000 0.000000 0.000000 0.000000 0.000000 0.000000 -2.604933 4.621607 7.351552 9.365025 -4.771239 -2.103262 0.271913 4.086977 -5.781255 3.655377 -2.567723 4.503395 0.000000 0.000000 0.000000 0.000000 0.000000 0.000000 11.684531 -14.288872 -13.999530 -6.622634 -7.016928 -2.477548 4.247771 45.989341 1.145067 0.000000 0.000000 0.000000 9.941122 -14.412258 -15.176127 -1.416170 -4.709485 -2.779987 2.288439 2.129972 7.353827 0.000000 0.000000 0.000000
25.232745 63.526399 363.739198 -19.125682 8.898360 15.504503 -0.390461 0.470468 -14.575451 0.171134 0.114210 -0.777133 -28.907314 3.777880 5.212332 0.000000 0.000000 0.000000 -15.278783 -8.718500 -1.369419 -120.738826 44.917052 142.540257 41.457803 35.804243 78.929310 -9.612723 41.726981 -107.683169 0.000000 0.000000 0.000000 0.000000 0.000000 0.000000 -2.853262 4.384914 7.204800 10.719403 -5.287227 -2.040215 -3.100240 3.440567 -5.235104 6.508092 -0.730033 4.063976 0.000000 0.000000 0.000000 0.000000 0.000000 0.000000 11.571062 -13.741970 -13.566300 -6.774476 -6.707710 -2.502015 2.950632 35.906354 3.477685 0.000000 0.000000 0.000000 10.543310 -13.221399 -14.258519 -2.408283 -5.427222 -3.296048 2.378206 2.188740 8.328172 0.000000 0.000000 0.000000
25.680492 63.535942 364.068541 -18.813096 8.328713 14.551207 -0.219889 0.415037 -13.714329 0.425453 0.014684 -0.736226 -28.376775 3.203598 4.648424 0.000000 0.000000 0.000000 -15.168535 -8.261250 -1.130177 -123.983922 42.694515 145.366571 39.456753 33.754887 80.246238 -8.785512 40.728310 -108.786544 0.000000 0.000000 0.000000 0.000000 0.000000 0.000000 -3.711790 4.665943 7.095481 10.612789 -5.870667 -1.912729 -5.883114 1.431535 -4.766332 7.327246 0.615148 3.939724 0.000000 0.000000 0.000000 0.000000 0.000000 0.000000 11.284701 -13.015787 -12.876722 -6.915571 -6.203599 -2.480336 2.315473 30.261363 4.721702 0.000000 0.000000 0.000000 10.792499 -11.718891 -13.111512 -3.068830 -6.093895 -3.762325 2.278129 1.341065 9.002969 0.000000 0.000000 0.000000
